<mxfile host="65bd71144e">
    <diagram id="SJcQ_kZN2iQ84v9CtUuq" name="ページ1">
        <mxGraphModel dx="948" dy="820" grid="1" gridSize="10" guides="1" tooltips="1" connect="1" arrows="1" fold="1" page="1" pageScale="1" pageWidth="1169" pageHeight="827" math="0" shadow="0">
            <root>
                <mxCell id="0"/>
                <mxCell id="1" parent="0"/>
                <mxCell id="23" value="" style="verticalLabelPosition=bottom;shadow=0;dashed=0;align=center;html=1;verticalAlign=top;strokeWidth=1;shape=mxgraph.mockup.graphics.barChart;strokeColor=none;strokeColor2=none;strokeColor3=#666666;fillColor2=#008cff;fillColor3=#dddddd;" parent="1" vertex="1">
                    <mxGeometry y="10" width="1160" height="800" as="geometry"/>
                </mxCell>
                <mxCell id="24" value="" style="strokeWidth=1;shadow=0;dashed=0;align=center;html=1;shape=mxgraph.mockup.text.rrect;rSize=0;strokeColor=#666666;" parent="1" vertex="1">
                    <mxGeometry x="170" y="90" width="616" height="30" as="geometry"/>
                </mxCell>
                <mxCell id="25" value="Button 2" style="strokeColor=inherit;fillColor=inherit;gradientColor=inherit;strokeWidth=1;shadow=0;dashed=0;align=center;html=1;shape=mxgraph.mockup.text.rrect;rSize=0;fontSize=17;fontColor=#0000ff;" parent="24" vertex="1">
                    <mxGeometry x="154" width="154" height="30" as="geometry"/>
                </mxCell>
                <mxCell id="26" value="Button 3" style="strokeColor=inherit;fillColor=inherit;gradientColor=inherit;strokeWidth=1;shadow=0;dashed=0;align=center;html=1;shape=mxgraph.mockup.text.rrect;rSize=0;fontSize=17;fontColor=#0000ff;" parent="24" vertex="1">
                    <mxGeometry x="308" width="154" height="30" as="geometry"/>
                </mxCell>
                <mxCell id="27" value="Button 4" style="strokeColor=inherit;fillColor=inherit;gradientColor=inherit;strokeWidth=1;shadow=0;dashed=0;align=center;html=1;shape=mxgraph.mockup.text.rrect;rSize=0;fontSize=17;fontColor=#0000ff;" parent="24" vertex="1">
                    <mxGeometry x="462" width="154" height="30" as="geometry"/>
                </mxCell>
                <mxCell id="28" value="Button 1" style="strokeWidth=1;shadow=0;dashed=0;align=center;html=1;shape=mxgraph.mockup.text.rrect;rSize=0;fontSize=17;fontColor=#ffffff;fillColor=#008cff;strokeColor=#008cff;" parent="24" vertex="1">
                    <mxGeometry width="154" height="30" as="geometry"/>
                </mxCell>
            </root>
        </mxGraphModel>
    </diagram>
    <diagram id="Fu7S5gziKoV2hZ0CVQ7o" name="ページ2">
        <mxGraphModel dx="758" dy="820" grid="1" gridSize="10" guides="1" tooltips="1" connect="1" arrows="1" fold="1" page="1" pageScale="1" pageWidth="1169" pageHeight="827" math="0" shadow="0">
            <root>
                <mxCell id="0"/>
                <mxCell id="1" parent="0"/>
                <mxCell id="oWNZQ_2Ma_hR6mQnjaR7-41" value="" style="edgeStyle=none;html=1;" edge="1" parent="1" source="oWNZQ_2Ma_hR6mQnjaR7-36" target="oWNZQ_2Ma_hR6mQnjaR7-40">
                    <mxGeometry relative="1" as="geometry"/>
                </mxCell>
                <mxCell id="oWNZQ_2Ma_hR6mQnjaR7-59" style="edgeStyle=none;html=1;exitX=1;exitY=1;exitDx=0;exitDy=0;entryX=0;entryY=0.75;entryDx=0;entryDy=0;" edge="1" parent="1" source="oWNZQ_2Ma_hR6mQnjaR7-36" target="oWNZQ_2Ma_hR6mQnjaR7-51">
                    <mxGeometry relative="1" as="geometry"/>
                </mxCell>
                <mxCell id="oWNZQ_2Ma_hR6mQnjaR7-36" value="&lt;div style=&quot;color: rgb(204, 204, 204); background-color: rgb(31, 31, 31); font-family: Consolas, &amp;quot;Courier New&amp;quot;, monospace; font-size: 14px; line-height: 19px;&quot;&gt;&lt;span style=&quot;color: #dcdcaa;&quot;&gt;drawFromLocalFile&lt;/span&gt;&lt;/div&gt;" style="whiteSpace=wrap;html=1;fillColor=rgb(24, 20, 29);rounded=0;" vertex="1" parent="1">
                    <mxGeometry x="40" y="40" width="200" height="30" as="geometry"/>
                </mxCell>
                <mxCell id="oWNZQ_2Ma_hR6mQnjaR7-43" value="" style="edgeStyle=none;html=1;" edge="1" parent="1" source="oWNZQ_2Ma_hR6mQnjaR7-40" target="oWNZQ_2Ma_hR6mQnjaR7-42">
                    <mxGeometry relative="1" as="geometry"/>
                </mxCell>
                <mxCell id="oWNZQ_2Ma_hR6mQnjaR7-40" value="&lt;div style=&quot;background-color: rgb(31, 31, 31); font-family: Consolas, &amp;quot;Courier New&amp;quot;, monospace; font-size: 14px; line-height: 19px;&quot;&gt;&lt;font color=&quot;#dcdcaa&quot;&gt;LocalFileOpen&lt;/font&gt;&lt;/div&gt;" style="whiteSpace=wrap;html=1;fillColor=rgb(24, 20, 29);rounded=0;" vertex="1" parent="1">
                    <mxGeometry x="340" y="40" width="200" height="30" as="geometry"/>
                </mxCell>
                <mxCell id="oWNZQ_2Ma_hR6mQnjaR7-45" value="" style="edgeStyle=none;html=1;" edge="1" parent="1" source="oWNZQ_2Ma_hR6mQnjaR7-42" target="oWNZQ_2Ma_hR6mQnjaR7-44">
                    <mxGeometry relative="1" as="geometry"/>
                </mxCell>
                <mxCell id="oWNZQ_2Ma_hR6mQnjaR7-42" value="&lt;div style=&quot;background-color: rgb(31, 31, 31); font-family: Consolas, &amp;quot;Courier New&amp;quot;, monospace; font-size: 14px; line-height: 19px;&quot;&gt;&lt;font color=&quot;#dcdcaa&quot;&gt;ParseCSV&lt;/font&gt;&lt;/div&gt;" style="whiteSpace=wrap;html=1;fillColor=rgb(24, 20, 29);rounded=0;" vertex="1" parent="1">
                    <mxGeometry x="340" y="86" width="200" height="30" as="geometry"/>
                </mxCell>
                <mxCell id="oWNZQ_2Ma_hR6mQnjaR7-47" value="" style="edgeStyle=none;html=1;" edge="1" parent="1" source="oWNZQ_2Ma_hR6mQnjaR7-44" target="oWNZQ_2Ma_hR6mQnjaR7-46">
                    <mxGeometry relative="1" as="geometry"/>
                </mxCell>
                <mxCell id="oWNZQ_2Ma_hR6mQnjaR7-44" value="&lt;div style=&quot;background-color: rgb(31, 31, 31); font-family: Consolas, &amp;quot;Courier New&amp;quot;, monospace; font-size: 14px; line-height: 19px;&quot;&gt;&lt;font color=&quot;#dcdcaa&quot;&gt;ParseDateCsv&lt;/font&gt;&lt;/div&gt;" style="whiteSpace=wrap;html=1;fillColor=rgb(24, 20, 29);rounded=0;" vertex="1" parent="1">
                    <mxGeometry x="340" y="136" width="200" height="30" as="geometry"/>
                </mxCell>
                <mxCell id="oWNZQ_2Ma_hR6mQnjaR7-49" value="" style="edgeStyle=none;html=1;" edge="1" parent="1" source="oWNZQ_2Ma_hR6mQnjaR7-46" target="oWNZQ_2Ma_hR6mQnjaR7-48">
                    <mxGeometry relative="1" as="geometry"/>
                </mxCell>
                <mxCell id="oWNZQ_2Ma_hR6mQnjaR7-46" value="&lt;div style=&quot;background-color: rgb(31, 31, 31); font-family: Consolas, &amp;quot;Courier New&amp;quot;, monospace; font-size: 14px; line-height: 19px;&quot;&gt;&lt;font color=&quot;#dcdcaa&quot;&gt;ConvertCSV&lt;/font&gt;&lt;/div&gt;" style="whiteSpace=wrap;html=1;fillColor=rgb(24, 20, 29);rounded=0;" vertex="1" parent="1">
                    <mxGeometry x="340" y="186" width="200" height="30" as="geometry"/>
                </mxCell>
                <mxCell id="oWNZQ_2Ma_hR6mQnjaR7-52" value="" style="edgeStyle=none;html=1;" edge="1" parent="1" source="oWNZQ_2Ma_hR6mQnjaR7-48" target="oWNZQ_2Ma_hR6mQnjaR7-51">
                    <mxGeometry relative="1" as="geometry"/>
                </mxCell>
                <mxCell id="oWNZQ_2Ma_hR6mQnjaR7-48" value="&lt;div style=&quot;background-color: rgb(31, 31, 31); font-family: Consolas, &amp;quot;Courier New&amp;quot;, monospace; font-size: 14px; line-height: 19px;&quot;&gt;&lt;font color=&quot;#dcdcaa&quot;&gt;ConvertTimelineCSV&lt;/font&gt;&lt;/div&gt;" style="whiteSpace=wrap;html=1;fillColor=rgb(24, 20, 29);rounded=0;" vertex="1" parent="1">
                    <mxGeometry x="340" y="236" width="200" height="30" as="geometry"/>
                </mxCell>
                <mxCell id="oWNZQ_2Ma_hR6mQnjaR7-51" value="&lt;div style=&quot;background-color: rgb(31, 31, 31); font-family: Consolas, &amp;quot;Courier New&amp;quot;, monospace; font-size: 14px; line-height: 19px;&quot;&gt;&lt;font color=&quot;#dcdcaa&quot;&gt;setInputArray&lt;/font&gt;&lt;/div&gt;" style="whiteSpace=wrap;html=1;fillColor=rgb(24, 20, 29);rounded=0;" vertex="1" parent="1">
                    <mxGeometry x="340" y="290" width="200" height="30" as="geometry"/>
                </mxCell>
                <mxCell id="oWNZQ_2Ma_hR6mQnjaR7-57" value="" style="edgeStyle=none;html=1;entryX=0;entryY=0.5;entryDx=0;entryDy=0;exitX=1;exitY=0;exitDx=0;exitDy=0;" edge="1" parent="1" source="oWNZQ_2Ma_hR6mQnjaR7-56" target="oWNZQ_2Ma_hR6mQnjaR7-46">
                    <mxGeometry relative="1" as="geometry"/>
                </mxCell>
                <mxCell id="oWNZQ_2Ma_hR6mQnjaR7-60" style="edgeStyle=none;html=1;exitX=1;exitY=1;exitDx=0;exitDy=0;entryX=0;entryY=0.5;entryDx=0;entryDy=0;" edge="1" parent="1" source="oWNZQ_2Ma_hR6mQnjaR7-56" target="oWNZQ_2Ma_hR6mQnjaR7-51">
                    <mxGeometry relative="1" as="geometry"/>
                </mxCell>
                <mxCell id="oWNZQ_2Ma_hR6mQnjaR7-56" value="&lt;div style=&quot;color: rgb(204, 204, 204); background-color: rgb(31, 31, 31); font-family: Consolas, &amp;quot;Courier New&amp;quot;, monospace; font-size: 14px; line-height: 19px;&quot;&gt;&lt;div style=&quot;line-height: 19px;&quot;&gt;&lt;span style=&quot;color: #dcdcaa;&quot;&gt;DrawNewProperty&lt;/span&gt;&lt;/div&gt;&lt;/div&gt;" style="whiteSpace=wrap;html=1;fillColor=rgb(24, 20, 29);rounded=0;" vertex="1" parent="1">
                    <mxGeometry x="30" y="260" width="200" height="30" as="geometry"/>
                </mxCell>
                <mxCell id="oWNZQ_2Ma_hR6mQnjaR7-62" style="edgeStyle=none;html=1;exitX=1;exitY=0;exitDx=0;exitDy=0;entryX=0;entryY=0.5;entryDx=0;entryDy=0;" edge="1" parent="1" source="oWNZQ_2Ma_hR6mQnjaR7-61" target="oWNZQ_2Ma_hR6mQnjaR7-40">
                    <mxGeometry relative="1" as="geometry"/>
                </mxCell>
                <mxCell id="oWNZQ_2Ma_hR6mQnjaR7-63" style="edgeStyle=none;html=1;exitX=1;exitY=1;exitDx=0;exitDy=0;entryX=0;entryY=0.75;entryDx=0;entryDy=0;" edge="1" parent="1" source="oWNZQ_2Ma_hR6mQnjaR7-61" target="oWNZQ_2Ma_hR6mQnjaR7-42">
                    <mxGeometry relative="1" as="geometry"/>
                </mxCell>
                <mxCell id="oWNZQ_2Ma_hR6mQnjaR7-61" value="&lt;div style=&quot;color: rgb(204, 204, 204); background-color: rgb(31, 31, 31); font-family: Consolas, &amp;quot;Courier New&amp;quot;, monospace; font-size: 14px; line-height: 19px;&quot;&gt;&lt;div style=&quot;line-height: 19px;&quot;&gt;&lt;div style=&quot;line-height: 19px;&quot;&gt;&lt;span style=&quot;color: #dcdcaa;&quot;&gt;GetHeaderFromLocalFile&lt;/span&gt;&lt;/div&gt;&lt;/div&gt;&lt;/div&gt;" style="whiteSpace=wrap;html=1;fillColor=rgb(24, 20, 29);rounded=0;" vertex="1" parent="1">
                    <mxGeometry x="40" y="106" width="200" height="30" as="geometry"/>
                </mxCell>
                <mxCell id="oWNZQ_2Ma_hR6mQnjaR7-65" style="edgeStyle=none;html=1;exitX=1;exitY=0;exitDx=0;exitDy=0;entryX=0.041;entryY=-0.093;entryDx=0;entryDy=0;entryPerimeter=0;" edge="1" parent="1" source="oWNZQ_2Ma_hR6mQnjaR7-64" target="oWNZQ_2Ma_hR6mQnjaR7-44">
                    <mxGeometry relative="1" as="geometry"/>
                </mxCell>
                <mxCell id="oWNZQ_2Ma_hR6mQnjaR7-66" style="edgeStyle=none;html=1;exitX=1;exitY=1;exitDx=0;exitDy=0;entryX=0;entryY=1;entryDx=0;entryDy=0;" edge="1" parent="1" source="oWNZQ_2Ma_hR6mQnjaR7-64" target="oWNZQ_2Ma_hR6mQnjaR7-51">
                    <mxGeometry relative="1" as="geometry"/>
                </mxCell>
                <mxCell id="oWNZQ_2Ma_hR6mQnjaR7-64" value="&lt;div style=&quot;color: rgb(204, 204, 204); background-color: rgb(31, 31, 31); font-family: Consolas, &amp;quot;Courier New&amp;quot;, monospace; font-size: 14px; line-height: 19px;&quot;&gt;&lt;div style=&quot;line-height: 19px;&quot;&gt;&lt;div style=&quot;line-height: 19px;&quot;&gt;&lt;span style=&quot;color: #dcdcaa;&quot;&gt;GetHeaderFromLocalFile&lt;/span&gt;&lt;/div&gt;&lt;/div&gt;&lt;/div&gt;" style="whiteSpace=wrap;html=1;fillColor=rgb(24, 20, 29);rounded=0;" vertex="1" parent="1">
                    <mxGeometry x="40" y="166" width="200" height="30" as="geometry"/>
                </mxCell>
            </root>
        </mxGraphModel>
    </diagram>
</mxfile>